<?xml version="1.0" encoding="UTF-8" standalone="no"?>
<!-- Created with Inkscape (http://www.inkscape.org/) -->

<svg
   width="600"
   height="200"
   viewBox="0 0 158.74999 52.916666"
   version="1.1"
   id="svg5"
   xml:space="preserve"
   inkscape:version="1.2.2 (b0a8486541, 2022-12-01)"
   sodipodi:docname="free-go.svg"
   xmlns:inkscape="http://www.inkscape.org/namespaces/inkscape"
   xmlns:sodipodi="http://sodipodi.sourceforge.net/DTD/sodipodi-0.dtd"
   xmlns="http://www.w3.org/2000/svg"
   xmlns:svg="http://www.w3.org/2000/svg"><sodipodi:namedview
     id="namedview7"
     pagecolor="#ffffff"
     bordercolor="#666666"
     borderopacity="1.0"
     inkscape:showpageshadow="2"
     inkscape:pageopacity="0.0"
     inkscape:pagecheckerboard="0"
     inkscape:deskcolor="#d1d1d1"
     inkscape:document-units="mm"
     showgrid="false"
     inkscape:zoom="1.2036648"
     inkscape:cx="206.45282"
     inkscape:cy="139.15834"
     inkscape:window-width="1920"
     inkscape:window-height="1080"
     inkscape:window-x="0"
     inkscape:window-y="0"
     inkscape:window-maximized="1"
     inkscape:current-layer="layer1" /><defs
     id="defs2"><inkscape:path-effect
       effect="envelope"
       id="path-effect382"
       is_visible="true"
       lpeversion="1"
       yy="true"
       xx="true"
       bendpath1="M 0,-0.03432674 H 234.36736"
       bendpath2="M 234.36736,-0.03432674 205.38776,76.7"
       bendpath3="M -28.979598,76.7 H 205.38776"
       bendpath4="M 0,-0.03432674 -28.979597,76.7"
       bendpath3-nodetypes="cc"
       bendpath1-nodetypes="cc"
       bendpath2-nodetypes="cc"
       bendpath4-nodetypes="cc" /><inkscape:path-effect
       effect="lattice2"
       gridpoint0="0.099486316,0.21531169"
       gridpoint1="205.14837,0.21531169"
       gridpoint2="0.099486316,76.7"
       gridpoint3="205.14837,76.7"
       gridpoint4="51.361707,0.21531169"
       gridpoint5="153.88615,0.21531169"
       gridpoint6="51.361707,76.7"
       gridpoint7="153.88615,76.7"
       gridpoint8x9="102.62393,0.21531169"
       gridpoint10x11="102.62393,76.7"
       gridpoint12="0.099486316,19.336484"
       gridpoint13="205.14837,19.336484"
       gridpoint14="0.099486316,57.578828"
       gridpoint15="205.14837,57.578828"
       gridpoint16="51.361707,19.336484"
       gridpoint17="153.88615,19.336484"
       gridpoint18="51.361707,57.578828"
       gridpoint19="153.88615,57.578828"
       gridpoint20x21="102.62393,19.336484"
       gridpoint22x23="102.62393,57.578828"
       gridpoint24x26="0.099486316,38.457656"
       gridpoint25x27="205.14837,38.457656"
       gridpoint28x30="51.361707,38.457656"
       gridpoint29x31="153.88615,38.457656"
       gridpoint32x33x34x35="102.62393,38.457656"
       id="path-effect378"
       is_visible="true"
       lpeversion="1"
       horizontal_mirror="false"
       vertical_mirror="false"
       perimetral="false"
       live_update="true" /><inkscape:path-effect
       effect="interpolate_points"
       id="path-effect376"
       is_visible="true"
       lpeversion="1"
       interpolator_type="CentripetalCatmullRom" /></defs><g
     inkscape:label="Calque 1"
     inkscape:groupmode="layer"
     id="layer1"
     transform="translate(-6.1488161,-157.824)"><path
       id="free"
       d="m 44.468739,169.05579 c -2.245111,0.002 -4.670251,0.73692 -6.254886,1.47256 v -0.004 c -2.653049,1.21184 -4.382886,2.46374 -5.673249,3.84065 -1.239883,1.32258 -2.067757,2.74924 -2.940489,4.33456 h -4.796182 c -0.139002,0 -0.264561,0.0792 -0.327747,0.20312 l -0.627797,1.22789 c -0.05835,0.11448 -0.05315,0.25057 0.01385,0.36006 0.06701,0.1095 0.190131,0.17541 0.318515,0.17541 h 4.542294 l -8.530647,18.13686 c -0.06506,0.13806 -0.0365,0.30517 0.06924,0.41546 l 0.170798,0.17541 c 0.08373,0.0873 0.203554,0.12947 0.323131,0.11079 l 3.480578,-0.54009 c 0.115829,-0.0179 0.218271,-0.0899 0.272354,-0.19388 l 9.412333,-18.10476 h 5.987148 c 0.134236,0 0.257581,-0.0722 0.32313,-0.18926 l 0.683191,-1.22789 c 0.0637,-0.11412 0.06148,-0.25205 -0.0046,-0.36469 -0.06611,-0.11281 -0.187786,-0.18464 -0.318517,-0.18464 h -5.677894 l 1.735673,-3.5729 0.0047,-0.004 c 0.396122,-0.85122 0.834786,-1.73474 1.56026,-2.39578 0.363198,-0.33144 0.796009,-0.61137 1.347917,-0.81245 0.551721,-0.20089 1.225311,-0.32295 2.058802,-0.32313 0.598807,-5.6e-4 1.1954,0.14089 1.791068,0.29082 0.595667,0.14809 1.185981,0.30781 1.795682,0.30928 0.318145,3.8e-4 0.609517,-0.0812 0.853988,-0.20772 0.368185,-0.19093 0.638137,-0.47657 0.821675,-0.76167 0.09177,-0.14328 0.162675,-0.28564 0.212344,-0.42468 0.0493,-0.13996 0.07755,-0.27494 0.07847,-0.41545 2.99e-4,-0.14108 -0.03046,-0.27864 -0.08771,-0.40161 -0.101214,-0.21662 -0.272752,-0.37246 -0.461642,-0.48934 -0.285834,-0.17523 -0.626876,-0.27549 -0.997091,-0.3416 -0.370216,-0.065 -0.767204,-0.0921 -1.158654,-0.0923 z m 30.485064,7.73205 c -4.2103,0.002 -8.372402,1.31985 -11.503448,3.24516 -1.56543,0.96384 -2.875124,2.0828 -3.803708,3.27747 -0.926924,1.19355 -1.476062,2.4716 -1.477168,3.75754 -3e-4,0.54789 0.123896,1.10875 0.401603,1.62951 0.416193,0.7825 1.17361,1.46866 2.312692,1.94801 1.140374,0.48057 2.665555,0.76131 4.666932,0.76166 5.099556,5.7e-4 9.328132,-1.70394 13.119099,-3.86833 0.112441,-0.0643 0.186682,-0.1843 0.189256,-0.3139 0.0032,-0.12947 -0.06556,-0.25439 -0.175413,-0.32313 l -0.798585,-0.49853 c -0.108764,-0.0682 -0.245207,-0.0758 -0.360068,-0.0185 -3.218197,1.60361 -6.531484,2.70152 -9.753925,2.70045 -1.302676,0.002 -2.426434,-0.19923 -3.185139,-0.54933 -0.380003,-0.17397 -0.667869,-0.38075 -0.849376,-0.60471 -0.181138,-0.22582 -0.265885,-0.45961 -0.267738,-0.7432 5.67e-4,-0.66021 0.08586,-1.27482 0.336985,-1.91109 3.047127,-0.15758 7.177816,-0.57462 10.617137,-1.44486 1.763558,-0.44758 3.343386,-1.01057 4.514595,-1.74028 0.585335,-0.36578 1.073906,-0.77404 1.421781,-1.24636 0.347689,-0.47049 0.550426,-1.01648 0.549324,-1.60182 5.63e-4,-0.25978 -0.06113,-0.50721 -0.175413,-0.72472 -0.201265,-0.38296 -0.541941,-0.66511 -0.946313,-0.8863 -0.609328,-0.33089 -1.387241,-0.53455 -2.229599,-0.66474 -0.842173,-0.12887 -1.746385,-0.17983 -2.603511,-0.18003 z m 21.663598,0 c -4.210107,0.002 -8.36724,1.31985 -11.49884,3.24516 -1.565607,0.96384 -2.874931,2.0828 -3.803708,3.27747 -0.927105,1.19355 -1.480676,2.4716 -1.481778,3.75754 -2.97e-4,0.54789 0.123895,1.10875 0.401605,1.62951 0.416188,0.7825 1.173791,1.46866 2.312689,1.94801 1.14037,0.48057 2.665551,0.76131 4.666931,0.76166 5.101217,5.7e-4 9.328136,-1.70407 13.1191,-3.86833 0.11264,-0.0643 0.1865,-0.18427 0.18927,-0.3139 0.003,-0.12938 -0.0657,-0.25426 -0.17542,-0.32313 l -0.798589,-0.49853 c -0.108756,-0.0681 -0.245214,-0.0758 -0.360068,-0.0185 -3.220038,1.60361 -6.533325,2.70152 -9.753919,2.70045 -1.302688,0.002 -2.42644,-0.19923 -3.185146,-0.54933 -0.38,-0.17397 -0.663252,-0.38075 -0.844762,-0.60471 -0.181132,-0.22582 -0.270504,-0.45961 -0.272346,-0.7432 5.63e-4,-0.65956 0.08665,-1.27409 0.336975,-1.91109 3.047441,-0.15743 7.176816,-0.57428 10.61715,-1.44486 1.763365,-0.44758 3.343571,-1.01057 4.514595,-1.74028 0.58515,-0.36578 1.07391,-0.77404 1.42178,-1.24636 0.34751,-0.47049 0.55062,-1.01667 0.54933,-1.60182 5.7e-4,-0.25978 -0.0611,-0.50721 -0.17541,-0.72472 -0.20127,-0.38278 -0.54195,-0.66511 -0.94632,-0.8863 -0.60916,-0.33089 -1.38762,-0.53455 -2.229608,-0.66474 -0.841433,-0.12887 -1.74768,-0.17983 -2.603511,-0.18003 z m -46.720066,0.35083 c -0.760743,0.002 -1.591096,0.19222 -2.441946,0.4847 -1.27535,0.43964 -2.597415,1.11249 -3.739083,1.78184 -1.14185,0.67007 -2.099979,1.33406 -2.649669,1.75413 -0.09417,0.0718 -0.146794,0.1863 -0.143102,0.30466 0.0037,0.11836 0.06315,0.22933 0.161566,0.29544 l 0.7432,0.49854 c 0.12205,0.082 0.282508,0.0842 0.406221,0.004 0.44629,-0.2875 1.246176,-0.7733 2.114199,-1.18174 0.433733,-0.20422 0.884083,-0.38996 1.310985,-0.52162 0.426348,-0.13221 0.829246,-0.20828 1.158656,-0.20773 0.298572,0.002 0.476754,0.0829 0.581633,0.1708 0.105988,0.0879 0.136084,0.18944 0.133868,0.22157 7.04e-4,0.0553 -0.01403,0.16489 -0.05078,0.29082 -0.107649,0.38352 -0.38111,0.92803 -0.581635,1.25559 l -0.0046,0.009 -4.491517,8.09673 c -0.02954,0.0461 -0.06647,0.10212 -0.101554,0.17542 -0.03416,0.0729 -0.06868,0.16821 -0.06924,0.29081 -1.5e-4,0.0799 0.02197,0.15414 0.05077,0.21234 0.05595,0.10985 0.126115,0.1741 0.193877,0.2262 0.120023,0.0882 0.24909,0.14404 0.39699,0.19849 0.220467,0.0796 0.478788,0.14367 0.747817,0.18926 0.268845,0.0451 0.548214,0.0736 0.803209,0.0738 0.51738,-1.6e-4 1.005954,-0.006 1.398696,-0.0416 0.197386,-0.0179 0.368738,-0.0422 0.521624,-0.0831 0.077,-0.0208 0.150856,-0.0477 0.226193,-0.0877 0.0733,-0.0409 0.159349,-0.0964 0.226191,-0.21234 l 0.0046,-0.004 1.024786,-1.87877 c 0.933349,-1.48771 2.401317,-3.6368 4.103759,-5.40091 0.85362,-0.88538 1.76337,-1.67159 2.6866,-2.2296 0.923785,-0.55947 1.854401,-0.88703 2.74661,-0.88629 0.644046,-0.002 1.383554,0.11392 2.109582,0.1154 0.493928,3e-4 0.920276,-0.1047 1.278674,-0.28158 0.539168,-0.26516 0.912337,-0.67895 1.144808,-1.09404 0.116508,-0.20827 0.198678,-0.41656 0.253885,-0.61395 0.05505,-0.19756 0.08291,-0.38479 0.08309,-0.55394 5.67e-4,-0.21529 -0.04876,-0.428 -0.15695,-0.61395 -0.08051,-0.1394 -0.192216,-0.26237 -0.323131,-0.36006 -0.197387,-0.1466 -0.436689,-0.2415 -0.710883,-0.30465 -0.274574,-0.063 -0.584595,-0.0921 -0.941702,-0.0923 -0.986931,0.002 -2.04052,0.35009 -3.10205,0.87245 -1.590911,0.78585 -3.204718,1.97996 -4.574608,3.12053 -0.60675,0.50539 -1.154852,0.99195 -1.638732,1.43561 l 1.200197,-2.23421 0.0047,-0.004 c 0.175228,-0.33273 0.320915,-0.64146 0.429302,-0.92323 0.05411,-0.14107 0.101926,-0.27863 0.13387,-0.40622 0.03157,-0.12796 0.05041,-0.24927 0.05078,-0.37391 0.0016,-0.26903 -0.08272,-0.52532 -0.240041,-0.72935 -0.116879,-0.15363 -0.268658,-0.27734 -0.438532,-0.37391 -0.255549,-0.14476 -0.556154,-0.23542 -0.895535,-0.29543 -0.339193,-0.0594 -0.719381,-0.0875 -1.135572,-0.0877 z m 23.745471,1.32945 c 0.698893,-0.002 1.229758,0.12261 1.546415,0.30005 0.159358,0.0883 0.263675,0.18576 0.327749,0.28159 0.06387,0.0968 0.0914,0.19239 0.09232,0.31389 -5.63e-4,0.33421 -0.08863,0.63537 -0.258511,0.93247 -0.2958,0.5183 -0.866721,1.0102 -1.647964,1.43562 -1.169544,0.64035 -2.791287,1.13447 -4.542281,1.47255 -1.5233,0.29518 -3.14533,0.47844 -4.662316,0.55856 0.228315,-0.3362 0.535526,-0.72006 0.90938,-1.11711 0.901814,-0.9609 2.179565,-2.01597 3.623676,-2.82048 1.444303,-0.80616 3.054053,-1.35843 4.611528,-1.35714 z m 21.663606,0 c 0.698894,-0.002 1.230667,0.12279 1.546415,0.30005 0.158795,0.0881 0.26386,0.18557 0.32775,0.28159 0.06354,0.0968 0.0914,0.19221 0.09231,0.31389 -5.63e-4,0.33441 -0.08845,0.63537 -0.258503,0.93247 -0.295615,0.5183 -0.866914,1.0102 -1.647964,1.43562 -1.169182,0.64035 -2.787048,1.13447 -4.537672,1.47255 -1.524665,0.29548 -3.148684,0.47856 -4.666931,0.55856 0.228299,-0.3362 0.535521,-0.72006 0.909376,-1.11711 0.902001,-0.9609 2.183993,-2.01597 3.628296,-2.82048 1.444672,-0.80616 3.048687,-1.35843 4.606918,-1.35714 z"
       style="fill:#cd1e25;fill-opacity:1;fill-rule:nonzero;stroke:none;stroke-width:0.149844" /><g
       id="g294"
       transform="matrix(0.2068276,0,0,0.2068276,107.86467,175.97251)"
       inkscape:path-effect="#path-effect382"
       class="UnoptimicedTransforms">
	<g
   id="g263">
		<g
   id="g261">
			<g
   id="g259">
				<path
   class="st0"
   d="m 8.0394888,23.200034 c -0.4336132,0 -0.466484,-0.2 -0.1363793,-0.5 -0.021951,0.01798 3.3181045,-2.717981 3.2961535,-2.7 0.330105,-0.3 0.947653,-0.5 1.381265,-0.5 2.720664,0 35.979264,0 38.699928,0 0.433612,0 0.428717,0.3 0.09861,0.6 -0.01357,0.01249 -2.811204,2.58751 -2.824773,2.6 -0.330105,0.3 -0.985419,0.6 -1.310629,0.6 4.401031,0.01123 -43.605208,-0.111226 -39.2041772,-0.1 z"
   id="path257"
   inkscape:original-d="M 4.6879985,23.2 C 4.287998,23.2 4.187998,23 4.387998,22.7 L 6.487999,20 c 0.2,-0.3 0.7,-0.5 1.1,-0.5 H 43.288 c 0.4,0 0.5,0.3 0.3,0.6 l -1.7,2.6 c -0.2,0.3 -0.7,0.6 -1,0.6 z" />
			</g>
		</g>
	</g>
	<g
   id="g271">
		<g
   id="g269">
			<g
   id="g267">
				<path
   class="st0"
   d="m -11.803875,32.400034 c -0.433612,0 -0.466483,-0.2 -0.136378,-0.5 -0.04115,0.0337 3.3372982,-2.733704 3.2961518,-2.7 0.3301048,-0.3 0.9476528,-0.5 1.3812654,-0.5 3.5641715,0 45.8676708,0 49.4318418,0 0.433613,0 0.537121,0.3 0.315419,0.6 -0.02213,0.02995 -1.751482,2.370053 -1.773613,2.4 -0.259467,0.4 -0.768612,0.6 -1.202225,0.6 6.516678,-0.0127 -57.829139,0.1127 -51.312462,0.1 z"
   id="path265"
   inkscape:original-d="m -10.412003,32.4 c -0.4,0 -0.5,-0.2 -0.3,-0.5 l 2.1,-2.7 c 0.2,-0.3 0.7,-0.5 1.1,-0.5 H 38.088 c 0.4,0 0.6,0.3 0.5,0.6 l -0.8,2.4 c -0.1,0.4 -0.5,0.6 -0.9,0.6 z" />
			</g>
		</g>
	</g>
	<g
   id="g279">
		<g
   id="g277">
			<g
   id="g275">
				<path
   class="st0"
   d="m 10.955207,41.600034 c -0.433613,0 -0.428718,-0.3 -0.09861,-0.6 -0.06532,0.06633 2.527114,-2.566329 2.461798,-2.5 0.330105,-0.3 0.877016,-0.6 1.310628,-0.6 0.882915,0 20.797717,0 21.680631,0 0.433613,0 0.537121,0.3 0.386056,0.7 0.0275,-0.05877 -1.150697,2.458767 -1.123194,2.4 -0.151064,0.4 -0.697975,0.7 -1.023185,0.7 1.38205,0.0059 -24.9761711,-0.105858 -23.594121,-0.1 z"
   id="path273"
   inkscape:original-d="m 13.788,41.6 c -0.4,0 -0.5,-0.3 -0.3,-0.6 l 1.4,-2.5 c 0.2,-0.3 0.6,-0.6 1,-0.6 h 20 c 0.4,0 0.6,0.3 0.6,0.7 l -0.2,2.4 c 0,0.4 -0.4,0.7 -0.7,0.7 z" />
			</g>
		</g>
	</g>
	<g
   id="g292">
		<g
   id="CXHf1q_3_">
			<g
   id="g289">
				<g
   id="g283">
					<path
   class="st0"
   d="m 142.82699,21.400034 c -7.43366,1.6 -12.54818,2.8 -19.87344,4.4 -1.77711,0.4 -1.92328,0.5 -2.76603,-1 -0.98402,-1.7 -1.76103,-2.8 -3.65983,-3.8 -5.65865,-3.1 -12.61114,-2.2 -20.187466,1.5 -9.033125,4.4 -15.282035,10.899999 -18.23269,18.999999 -2.912889,8 0.556719,14.600001 8.705141,15.700001 7.031519,0.9 14.116885,-1.5 20.921105,-6.6 1.39105,-1.1 2.71147,-2.3 4.32423,-3.7 4.11932,0 -16.80249,0 -20.92181,0 -2.276466,0 -2.327522,-1.300001 -0.926675,-3.000001 2.579992,-3.1 7.145507,-8.3 9.645071,-10.9 0.551804,-0.6 1.688294,-1.6 3.314334,-1.6 524.24311,0 -484.78435,0 39.45875,0 -1.23649,2.7 -2.25618,5.4 -3.70948,8.1 -3.91159,7.2 -9.33104,13.800001 -16.29122,19.600001 -11.39281,9.5 -23.81091,15.4 -37.315144,17 -11.114469,1.3 -20.261599,-0.6 -26.667882,-6.6 -5.906929,-5.6 -7.665167,-13 -5.383116,-22.2 2.707269,-10.900001 9.877252,-20.7 20.279749,-29.3 C 84.749463,8.7000339 97.167562,2.8000342 110.42701,0.70003429 c 10.83192,-1.69999992 20.17278,-0.59999999 26.8763,4.89999981 4.42355,3.4999998 6.7301,8.2999999 7.24974,14.0999999 0.31052,0.9 -0.31192,1.4 -1.72606,1.7 z"
   id="path281"
   inkscape:original-d="m 128.4,21.4 c -6.3,1.6 -10.6,2.8 -16.8,4.4 -1.5,0.4 -1.6,0.5 -2.9,-1 -1.5,-1.7 -2.6,-2.8 -4.7,-3.8 -6.3,-3.1 -12.4,-2.2 -18.1,1.5 -6.8,4.4 -10.3,10.9 -10.2,19 0.1,8 5.6,14.6 13.5,15.7 6.8,0.9 12.5,-1.5 17,-6.6 0.9,-1.1 1.7,-2.3 2.7,-3.7 -3.6,0 -8.1,0 -19.3,0 -2.1,0 -2.6,-1.3 -1.9,-3 1.3,-3.1 3.7,-8.3 5.1,-10.9 0.3,-0.6 1,-1.6 2.5,-1.6 5.1,0 23.9,0 36.4,0 -0.2,2.7 -0.2,5.4 -0.6,8.1 -1.1,7.2 -3.8,13.8 -8.2,19.6 -7.2,9.5 -16.6,15.4 -28.5,17 C 84.6,77.4 75.5,75.5 67.5,69.5 60.1,63.9 55.9,56.5 54.8,47.3 53.5,36.4 56.7,26.6 63.3,18 70.4,8.7 79.8,2.8 91.3,0.7 c 9.4,-1.7 18.4,-0.6 26.5,4.9 5.3,3.5 9.1,8.3 11.6,14.1 0.6,0.9 0.2,1.4 -1,1.7 z" />
				</g>
				<g
   id="g287">
					<path
   class="st0"
   d="m 157.82376,76.700034 c -9.78916,-0.2 -17.8047,-2.8 -23.12695,-8.8 -4.46971,-5.1 -6.02583,-11.6 -4.41868,-19.3 2.31632,-11.300001 9.45343,-21.300001 20.18604,-30.2 11.53898,-9.6000001 22.96676,-14.6 36.65983,-16.6999999 11.73691,-1.79999999 21.76595,-0.80000005 28.96882,5.1 6.52448,5.3999999 9.0793,12.6999999 6.86299,22.2999999 -3.25557,13.5 -11.63757,24.5 -25.26908,33.9 -9.68494,6.7 -20.05178,10.9 -30.85083,12.8 -3.11571,0.5 -6.08036,0.6 -9.01214,0.9 z m 41.05747,-40.4 c 0.38256,-1.3 0.76022,-2.3 0.92107,-3.3 1.7876,-9.9 -5.96219,-15.5 -17.09134,-13.3 -10.87458,2.1 -19.60698,8 -25.54186,17.399999 -4.89702,7.8 -3.76123,15.700001 2.83528,18.900001 5.05579,2.4 11.13126,2.1 17.89632,-0.6 10.11226,-4.1 17.19063,-10.5 20.98053,-19.1 z"
   id="path285"
   inkscape:original-d="m 161.5,76.7 c -9.1,-0.2 -17.4,-2.8 -24.4,-8.8 -5.9,-5.1 -9.6,-11.6 -10.8,-19.3 -1.8,-11.3 1.3,-21.3 8.1,-30.2 7.3,-9.6 16.1,-14.6 28,-16.7 10.2,-1.8 19.8,-0.8 28.5,5.1 7.9,5.4 12.8,12.7 14.1,22.3 1.7,13.5 -2.2,24.5 -11.5,33.9 -6.6,6.7 -14.7,10.9 -24,12.8 -2.7,0.5 -5.4,0.6 -8,0.9 z M 185.3,36.3 C 185.2,35 185.2,34 185,33 183.2,23.1 174.1,17.5 164.6,19.7 c -9.3,2.1 -15.3,8 -17.5,17.4 -1.8,7.8 2,15.7 9.2,18.9 5.5,2.4 11,2.1 16.3,-0.6 7.9,-4.1 12.2,-10.5 12.7,-19.1 z" />
				</g>
			</g>
		</g>
	</g>
</g></g><style
     type="text/css"
     id="style255">
	.st0{fill:#00ACD7;}
</style></svg>
